<?xml version="1.0" encoding="utf-8"?>
<!-- Generator: Adobe Illustrator 26.5.0, SVG Export Plug-In . SVG Version: 6.00 Build 0)  -->
<svg version="1.1" xmlns="http://www.w3.org/2000/svg" xmlns:xlink="http://www.w3.org/1999/xlink" x="0px" y="0px"
	 viewBox="0 0 400 400" style="enable-background:new 0 0 400 400;" xml:space="preserve">
<style type="text/css">
	.st0{display:none;}
	.st1{stroke:#000000;stroke-miterlimit:10;}
	.st2{fill:#F0B15F;}
	.st3{fill:#FFFFFF;}
</style>
<g id="Layer_1" class="st0">
	
		<image style="display:inline;overflow:visible;" width="750" height="604" xlink:href="C:\Users\woute\Downloads\WhatsApp Image 2022-09-20 at 8.03.17 PM.jpeg"  transform="matrix(1.4138 0 0 1.4138 -330.1613 -226.9566)">
	</image>
</g>
<g id="Layer_2">
	<circle class="st1" cx="200" cy="200" r="200"/>
	<g id="Layer_3">
		<path class="st2" d="M200.9,43.4c0,0-54.2,0-59.2,71.6c-1,47.1,25.2,66.3,34,71.3c3.9,2.3,7.4,5.2,10.1,8.8
			c2.4,3.2,4.5,7.2,4.7,11.6c0.4,10.5-5.9,150.1,9.2,149.9s10.6-149.9,10.6-149.9s0.7-11.4,13.9-19.9c13.7-8.8,34.7-34.5,34.3-68.4
			C257.4,43.4,200.9,43.4,200.9,43.4z"/>
	</g>
	<g id="Layer_4">
		<path class="st3" d="M119.9,109.9c0,0-10.6,57.5,40.3,97.3c7.5,6.6,7.5,17.3,7.5,17.3l0.8,73.5h-38.2l-0.3-71.5
			c0,0-59-0.4-58.3-60.5C73.8,113.8,119.9,109.9,119.9,109.9z"/>
		<g>
			<path class="st3" d="M280.1,109.9c0,0,10.6,57.5-40.3,97.3c-7.5,6.6-7.5,17.3-7.5,17.3l-0.8,73.5h38.2l0.3-71.5
				c0,0,59-0.4,58.3-60.5C326.2,113.8,280.1,109.9,280.1,109.9z"/>
		</g>
	</g>
</g>
</svg>
